<?xml version="1.0" standalone="no"?><!DOCTYPE svg PUBLIC "-//W3C//DTD SVG 1.1//EN" "http://www.w3.org/Graphics/SVG/1.1/DTD/svg11.dtd"><svg t="1574151201035" class="icon" viewBox="0 0 1024 1024" version="1.1" xmlns="http://www.w3.org/2000/svg" p-id="46475" xmlns:xlink="http://www.w3.org/1999/xlink" width="200" height="200"><defs><style type="text/css"></style></defs><path d="M726.109091 349.090909h-58.181818V0H137.309091C58.181818 0 0 58.181818 0 137.309091V884.363636c0 74.472727 58.181818 139.636364 137.309091 139.636364H884.363636c72.145455 0 137.309091-58.181818 137.309091-137.309091V349.090909H726.109091zM160.581818 239.709091H558.545455V349.090909H160.581818v-109.381818z m695.854546 630.690909h-698.181819v-109.381818h698.181819v109.381818z m0-265.309091h-698.181819v-102.4h698.181819V605.090909z" p-id="46476"></path><path d="M621.381818 46.545455v349.090909H977.454545v491.054545c0 55.854545-46.545455 90.763636-90.763636 90.763636H137.309091C81.454545 977.454545 46.545455 930.909091 46.545455 886.690909V137.309091C46.545455 83.781818 83.781818 46.545455 137.309091 46.545455h484.072727M114.036364 395.636364H558.545455V193.163636H114.036364V395.636364m0 256h791.272727v-195.490909h-791.272727V651.636364m0 265.309091h791.272727v-202.472728h-791.272727v202.472728M667.927273 0H137.309091C58.181818 0 0 58.181818 0 137.309091V884.363636c0 74.472727 58.181818 139.636364 137.309091 139.636364H884.363636c72.145455 0 137.309091-58.181818 137.309091-137.309091V349.090909H667.927273V0zM160.581818 349.090909v-109.381818H512V349.090909H160.581818z m0 256v-102.4h698.181818V605.090909h-698.181818z m0 265.309091v-109.381818h698.181818v109.381818h-698.181818z" p-id="46477"></path><path d="M726.109091 290.909091h290.909091V137.309091c0-72.145455-58.181818-137.309091-137.309091-137.309091h-153.6v290.909091z" p-id="46478"></path></svg>