<?xml version="1.0" standalone="no"?><!DOCTYPE svg PUBLIC "-//W3C//DTD SVG 1.1//EN" "http://www.w3.org/Graphics/SVG/1.1/DTD/svg11.dtd"><svg t="1574151096828" class="icon" viewBox="0 0 1024 1024" version="1.1" xmlns="http://www.w3.org/2000/svg" p-id="43670" xmlns:xlink="http://www.w3.org/1999/xlink" width="200" height="200"><defs><style type="text/css"></style></defs><path d="M800.199111 936.96a11.343644 11.343644 0 0 1-9.557333-5.688889l-25.144889-43.576889c-2.503111 0.341333-4.892444 0.568889-7.395556 0.568889-4.096 0-8.078222-0.568889-11.832889-1.592889l-9.102222-2.616889c-0.910222-0.227556-3.185778-0.568889-5.916444-0.568889-3.185778 0-5.233778 0.341333-6.030222 0.568889l-9.102223 2.616889a44.999111 44.999111 0 0 1-20.366222 0.796445l-25.258667 43.804444c-1.934222 3.413333-5.575111 5.575111-9.557333 5.688889h-0.341333c-3.868444 0-7.395556-1.934222-9.557334-5.233778l-20.138666-30.947555H588.231111c-4.096 0-7.850667-2.161778-9.898667-5.688889s-2.048-7.850667 0-11.377778l30.833778-53.475556c0-0.113778-3.185778-9.443556-3.185778-9.443555-0.910222-2.616889-4.778667-8.305778-6.826666-10.012445l-4.778667-3.982222H194.787556c-35.726222 0-64.739556-29.809778-64.739556-66.446222 0-36.636444 29.013333-66.446222 64.739556-66.446222h0.455111V143.928889c0-31.402667 25.486222-56.888889 56.888889-56.888889h541.354666c35.726222 0 64.739556 29.013333 64.739556 64.739556 0 6.257778-5.12 11.377778-11.377778 11.377777h-95.345778v402.204445c1.024 0.455111 2.048 1.024 2.958222 1.479111l8.192 4.664889c2.275556 1.365333 8.533333 2.844444 11.377778 2.844444l10.808889-0.341333c15.36 0 31.857778 8.988444 40.049778 21.959111l5.12 8.078222c1.479111 2.275556 6.485333 6.826667 8.988444 8.078222l8.533334 4.209778c14.108444 6.940444 25.031111 22.869333 26.396444 38.684445l0.910222 9.557333c0.227556 2.730667 2.616889 9.216 4.323556 11.377778l5.575111 7.736889c9.329778 12.743111 11.605333 31.971556 5.575111 46.648889l-3.640889 8.874666c-1.024 2.616889-1.934222 9.329778-1.479111 12.174222l1.479111 9.443556c2.389333 15.701333-4.437333 33.678222-16.497778 43.918222l-7.281777 6.144c-2.161778 1.820444-5.916444 7.395556-6.826667 10.012445 0 0-3.527111 10.24-3.754667 10.808889l30.037334 52.110222c2.048 3.527111 2.048 7.850667 0 11.377778s-5.802667 5.688889-9.898667 5.688888h-42.666667l-20.138666 30.947556c-2.048 3.185778-5.688889 5.233778-9.557334 5.233778 0.227556-0.113778 0.113778-0.113778 0.113778-0.113778z" fill="#FFFFFF" p-id="43671"></path><path d="M793.6 98.417778c29.468444 0 53.361778 23.893333 53.361778 53.361778h-106.723556V573.44c3.072 0.682667 6.030222 1.820444 8.760889 3.299556l8.192 4.664888c4.096 2.275556 12.174222 4.437333 17.066667 4.437334h0.455111l9.443555-0.341334H785.066667c11.491556 0 24.348444 6.940444 30.492444 16.725334l5.12 8.078222c2.616889 4.096 9.216 10.012444 13.539556 12.174222l8.533333 4.209778c10.581333 5.233778 19.114667 17.749333 20.138667 29.468444l0.910222 9.557334c0.455111 4.892444 3.527111 13.198222 6.371555 17.066666l5.575112 7.736889c6.940444 9.557333 8.760889 24.689778 4.323555 35.612445l-3.640889 8.874666c-1.820444 4.437333-2.958222 13.312-2.161778 18.204445l1.479112 9.443555c1.820444 11.719111-3.527111 25.941333-12.515556 33.564445l-7.281778 6.144c-3.640889 3.072-8.760889 10.467556-10.24 15.018667l-3.072 9.102222c-0.682667 2.048-1.592889 4.096-2.730666 5.916444l33.109333 57.344h-48.810667l-23.438222 36.181334-29.468444-50.972445c-4.209778 1.479111-8.647111 2.161778-12.970667 2.161778-2.958222 0-5.916444-0.341333-8.760889-1.137778l-9.102222-2.616889c-2.275556-0.682667-5.688889-1.024-8.988445-1.024-3.413333 0-6.712889 0.341333-9.102222 1.024l-9.102222 2.616889c-2.730667 0.796444-5.688889 1.137778-8.760889 1.137778-4.664889 0-9.557333-0.910222-13.994667-2.616889l-29.696 51.313778-23.665777-36.408889h-48.810667l33.678222-58.368c-0.796444-1.479111-1.592889-3.185778-2.161778-4.778667l-3.072-9.102222c-1.592889-4.551111-6.599111-11.946667-10.24-15.018667l-7.281777-6.144c-0.227556-0.113778-0.341333-0.341333-0.568889-0.568889h-403.911111c-29.468444 0-53.361778-24.689778-53.361778-55.068444s23.893333-55.068444 53.361778-55.068444h11.832888V143.928889c0-25.144889 20.366222-45.511111 45.511112-45.511111h541.468444m0-22.755556H252.131556c-37.660444 0-68.266667 30.606222-68.266667 68.266667v519.509333c-36.864 5.461333-65.194667 37.888-65.194667 77.027556 0 42.894222 34.133333 77.824 76.117334 77.824h395.491555l1.592889 1.365333c0.796444 0.796444 2.958222 3.868444 3.527111 5.233778l1.479111 4.323555-28.216889 48.924445c-4.096 7.054222-4.096 15.701333 0 22.755555 4.096 7.054222 11.605333 11.377778 19.683556 11.377778h36.522667l16.725333 25.827556c4.209778 6.485333 11.377778 10.353778 19.114667 10.353778h0.568888c7.964444-0.227556 15.132444-4.551111 19.114667-11.377778l21.617778-37.432889h2.389333c5.12 0 10.126222-0.682667 14.904889-2.048l9.102222-2.616889c0.113778 0 1.251556-0.113778 2.844445-0.113778 1.706667 0 2.958222 0.113778 3.185778 0.227556l8.760888 2.503111c4.664889 1.365333 9.671111 2.048 14.904889 2.048h1.137778l21.617778 37.432889c3.982222 6.826667 11.150222 11.150222 19.114667 11.377778h0.568888c7.736889 0 14.904889-3.868444 19.114667-10.353778l16.725333-25.827556h36.522667c8.078222 0 15.587556-4.323556 19.683556-11.377778 4.096-7.054222 4.096-15.701333 0-22.755555L865.166222 830.577778l2.048-6.030222c0.455111-1.137778 2.616889-4.209778 3.640889-5.233778l7.054222-5.916445c14.904889-12.629333 23.324444-34.929778 20.366223-54.272l-1.479112-9.443555c-0.113778-1.251556 0.341333-5.006222 0.796445-6.371556l3.527111-8.533333c7.395556-18.090667 4.551111-41.756444-6.940444-57.571556l-5.575112-7.736889c-0.568889-1.024-1.934222-4.551111-2.161777-6.030222l-0.796445-9.216c-1.706667-19.569778-15.246222-39.253333-32.768-47.900444l-8.533333-4.209778a25.941333 25.941333 0 0 1-4.551111-4.209778l-5.006222-7.736889c-10.353778-16.270222-30.378667-27.192889-49.720889-27.192889h-1.592889l-9.443556 0.341334c-1.024-0.113778-4.551111-0.910222-5.916444-1.592889l-5.233778-2.958222V174.535111H846.848c12.515556 0 22.755556-10.24 22.755556-22.755555 0-41.984-34.133333-76.117333-76.003556-76.117334z" fill="#292647" p-id="43672"></path><path d="M702.919111 792.007111H206.620444V151.779556h533.504v602.908444a37.091556 37.091556 0 0 1-37.205333 37.319111z" fill="#BFEEFF" p-id="43673"></path><path d="M702.919111 792.007111H206.620444V651.605333h533.504v103.196445a37.080178 37.080178 0 0 1-37.205333 37.205333z" fill="#78DBFF" p-id="43674"></path><path d="M793.6 98.417778H252.131556c-25.144889 0-45.511111 20.366222-45.511112 45.511111v7.850667h586.865778V98.417778z" fill="#BFEEFF" p-id="43675"></path><path d="M793.6 98.417778a53.361778 53.361778 0 0 0-53.361778 53.361778h106.723556c-0.113778-29.468444-23.893333-53.361778-53.361778-53.361778z" fill="#47BBE6" p-id="43676"></path><path d="M141.425778 740.352c0 30.378667 23.893333 55.068444 53.361778 55.068444v-110.136888c-29.468444 0.113778-53.361778 24.689778-53.361778 55.068444zM643.527111 740.352c0-23.324444 14.108444-43.235556 33.905778-51.313778 1.934222-0.796444 1.365333-3.754667-0.682667-3.754666H194.787556v110.136888h502.101333c-29.468444 0-53.361778-24.576-53.361778-55.068444z" fill="#E3F8FF" p-id="43677"></path><path d="M464.896 546.816l-50.972444 21.390222c-10.581333-22.641778-19.569778-42.894222-27.079112-60.529778l-49.379555 11.832889 0.113778 8.760889c0.227556 14.222222 0 32.540444-0.796445 54.840889l-55.751111-3.299555c0.113778-0.796444 1.365333-15.246222 3.868445-43.235556l20.366222-222.094222c2.048-26.168889 7.281778-40.049778 15.587555-41.642667 6.826667-1.365333 17.749333 13.880889 32.654223 45.738667l28.444444 59.505778c35.271111 75.093333 62.919111 131.299556 82.944 168.732444z m-97.507556-87.836444c-1.251556-4.096-3.527111-10.24-6.712888-18.545778l-18.773334-47.672889c-3.072-7.850667-5.006222-14.222222-6.030222-19.114667l0.341333 19.456 0.910223 71.452445c4.437333-0.682667 11.832889-1.934222 22.186666-3.982223l8.078222-1.592888zM559.104 405.276444l23.779556 122.424889-39.822223 7.736889-23.779555-122.424889-51.996445 10.126223-7.850666-40.618667 51.996444-10.126222-23.552-121.287111 39.822222-7.736889 23.552 121.287111 49.834667-9.671111 7.850667 40.618666-49.834667 9.671111z" fill="#FF5D15" p-id="43678"></path><path d="M800.199111 936.96a11.343644 11.343644 0 0 1-9.557333-5.688889l-25.144889-43.576889c-2.503111 0.341333-4.892444 0.568889-7.395556 0.568889-4.096 0-8.078222-0.568889-11.832889-1.592889l-9.102222-2.616889c-0.910222-0.227556-3.185778-0.568889-5.916444-0.568889-3.185778 0-5.233778 0.341333-6.030222 0.568889l-9.102223 2.616889a44.373333 44.373333 0 0 1-11.832889 1.592889c-2.844444 0-5.688889-0.227556-8.533333-0.796444l-25.258667 43.804444c-1.934222 3.413333-5.575111 5.575111-9.557333 5.688889h-0.341333c-3.868444 0-7.395556-1.934222-9.557334-5.233778l-20.138666-30.947555H588.231111c-4.096 0-7.850667-2.161778-9.898667-5.688889s-2.048-7.850667 0-11.377778l30.833778-53.475556c0-0.113778-3.185778-9.443556-3.185778-9.443555-0.910222-2.616889-4.778667-8.305778-6.826666-10.012445l-7.281778-6.144c-12.060444-10.126222-18.887111-28.216889-16.497778-43.918222l1.479111-9.443555c0.455111-2.730667-0.455111-9.557333-1.479111-12.174223l-3.640889-8.874666c-6.030222-14.677333-3.754667-33.792 5.575111-46.648889l5.575112-7.736889c1.592889-2.275556 3.982222-8.647111 4.323555-11.377778l0.910222-9.557333c1.365333-15.815111 12.288-31.744 26.396445-38.684445l8.533333-4.209777c2.389333-1.251556 7.509333-5.688889 8.988445-8.078223l5.12-8.078222c8.192-12.856889 24.689778-21.959111 40.049777-21.959111l10.695111 0.341333c3.299556 0 9.443556-1.706667 11.605334-2.844444l8.192-4.664889c6.712889-3.868444 14.791111-5.916444 23.324444-5.916444 8.419556 0 16.725333 2.048 23.324445 5.916444l8.192 4.664889c2.275556 1.365333 8.533333 2.844444 11.377777 2.844444l10.808889-0.341333c15.36 0 31.857778 8.988444 40.049778 21.959111l5.12 8.078222c1.479111 2.275556 6.485333 6.826667 8.988445 8.078223l8.533333 4.209777c14.108444 6.940444 25.031111 22.869333 26.396444 38.684445l0.910223 9.557333c0.227556 2.730667 2.616889 9.216 4.323555 11.377778l5.575111 7.736889c9.329778 12.743111 11.605333 31.971556 5.575111 46.648889l-3.640889 8.874666c-1.024 2.616889-1.934222 9.443556-1.479111 12.174223l1.479111 9.443555c2.389333 15.701333-4.437333 33.792-16.497777 43.918222l-7.281778 6.144c-2.161778 1.820444-5.916444 7.395556-6.826667 10.012445 0 0-3.527111 10.24-3.754666 10.808889l30.037333 52.110222c2.048 3.527111 2.048 7.850667 0 11.377778s-5.802667 5.688889-9.898667 5.688889h-42.666666l-20.138667 30.947555c-2.048 3.185778-5.688889 5.233778-9.557333 5.233778h0.227555z" fill="#953FFF" p-id="43679"></path><path d="M731.136 572.416c6.257778 0 12.629333 1.479111 17.749333 4.323556l8.192 4.664888c4.096 2.275556 12.174222 4.437333 17.066667 4.437334h0.455111l9.443556-0.341334h0.910222c11.491556 0 24.348444 6.940444 30.492444 16.725334l5.12 8.078222c2.616889 4.096 9.216 10.012444 13.539556 12.174222l8.533333 4.209778c10.581333 5.233778 19.114667 17.749333 20.138667 29.468444l0.910222 9.557334c0.455111 4.892444 3.527111 13.198222 6.371556 17.066666l5.575111 7.736889c6.940444 9.557333 8.760889 24.689778 4.323555 35.612445l-3.640889 8.874666c-1.820444 4.437333-2.958222 13.312-2.161777 18.204445l1.479111 9.443555c1.820444 11.719111-3.527111 25.941333-12.515556 33.564445l-7.281778 6.144c-3.640889 3.072-8.760889 10.467556-10.24 15.018667l-3.072 9.102222c-0.682667 2.048-1.592889 4.096-2.730666 5.916444l33.109333 57.344h-48.810667l-23.438222 36.181334-29.468444-50.972445c-4.209778 1.479111-8.647111 2.161778-12.970667 2.161778-2.958222 0-5.916444-0.341333-8.760889-1.137778l-9.102222-2.616889c-2.275556-0.682667-5.688889-1.024-8.988444-1.024-3.413333 0-6.712889 0.341333-8.988445 1.024l-9.102222 2.616889c-2.730667 0.796444-5.688889 1.137778-8.760889 1.137778-4.664889 0-9.557333-0.910222-13.994667-2.616889l-29.696 51.313778-23.665777-36.408889h-48.810667l33.678222-58.368c-0.796444-1.479111-1.592889-3.185778-2.161778-4.778667l-3.072-9.102222c-1.592889-4.551111-6.599111-11.946667-10.24-15.018667l-7.281777-6.144c-8.988444-7.623111-14.336-21.845333-12.515556-33.564444l1.479111-9.443556c0.682667-4.778667-0.341333-13.653333-2.161778-18.204444l-3.640889-8.874667c-4.437333-10.922667-2.730667-26.055111 4.323556-35.612444l5.461333-7.623111c2.844444-3.868444 6.030222-12.288 6.371556-17.066667l0.796444-9.557333c1.024-11.832889 9.557333-24.348444 20.138667-29.468445l8.533333-4.209778c4.323556-2.161778 10.922667-8.078222 13.539556-12.174222l5.12-8.078222c6.257778-9.671111 19.000889-16.725333 30.492444-16.725333h0.910223l9.443555 0.341333h0.455111c4.892444 0 13.084444-2.048 17.066667-4.437333l8.192-4.664889a39.708444 39.708444 0 0 1 17.863111-4.209778m0-22.755556v22.755556-22.755556c-10.581333 0-20.593778 2.503111-29.013333 7.395556l-8.192 4.664889c-1.024 0.455111-4.437333 1.365333-5.916445 1.365333l-9.102222-0.341333h-1.592889c-19.342222 0-39.367111 10.922667-49.720889 27.192889l-5.12 8.078222c-0.682667 0.910222-3.413333 3.413333-4.664889 4.096l-8.192 3.982222c-17.521778 8.647111-30.947556 28.330667-32.768 47.900445l-0.796444 9.557333c-0.227556 1.137778-1.479111 4.664889-2.275556 6.030222l-5.461333 7.395556c-11.491556 15.815111-14.336 39.480889-6.940444 57.571555l3.640888 8.874667c0.341333 1.137778 0.796444 4.892444 0.682667 6.485333l-1.365333 9.216c-2.958222 19.342222 5.461333 41.756444 20.366222 54.272l7.281778 6.144c0.796444 0.796444 2.958222 3.868444 3.527111 5.233778l1.479111 4.323556-28.216889 48.924444c-4.096 7.054222-4.096 15.701333 0 22.755556 4.096 7.054222 11.605333 11.377778 19.683556 11.377777h36.522666l16.725334 25.827556c4.209778 6.485333 11.377778 10.353778 19.114666 10.353778h0.568889c7.964444-0.227556 15.132444-4.551111 19.114667-11.377778l21.617778-37.432889h2.389333c5.12 0 10.126222-0.682667 14.904889-2.048l9.102222-2.616889c0.113778 0 1.251556-0.113778 2.844445-0.113778 1.706667 0 2.958222 0.113778 3.185777 0.227556l8.760889 2.503111c4.664889 1.365333 9.671111 2.048 14.904889 2.048h1.137778l21.617778 37.432889c3.982222 6.826667 11.150222 11.150222 19.114666 11.377778h0.568889c7.736889 0 14.904889-3.868444 19.114667-10.353778l16.725333-25.827556h36.522667c8.078222 0 15.587556-4.323556 19.683555-11.377777 4.096-7.054222 4.096-15.701333 0-22.755556l-27.420444-47.559111 2.048-6.030222c0.455111-1.137778 2.616889-4.209778 3.640889-5.233778l7.054222-5.916444c14.904889-12.629333 23.324444-34.929778 20.366222-54.272l-1.479111-9.443556c-0.113778-1.251556 0.341333-5.006222 0.796445-6.371556l3.527111-8.533333c7.509333-18.432 4.778667-41.528889-6.940445-57.571555l-5.575111-7.736889c-0.568889-1.024-1.934222-4.551111-2.161778-6.030223l-0.796444-9.216c-1.706667-19.569778-15.246222-39.253333-32.768-47.900444l-8.533333-4.209778a25.941333 25.941333 0 0 1-4.551111-4.209778l-5.006223-7.736888c-10.353778-16.270222-30.378667-27.192889-49.720889-27.192889h-1.592888l-9.443556 0.341333c-1.024-0.113778-4.551111-0.910222-5.916444-1.592889l-7.964445-4.551111c-8.533333-4.892444-18.545778-7.395556-29.127111-7.395556z" fill="#292647" p-id="43680"></path><path d="M731.136 615.424c-60.984889 0-110.364444 49.948444-110.364444 111.616s49.379556 111.616 110.364444 111.616c60.984889 0 110.364444-49.948444 110.364444-111.616s-49.379556-111.616-110.364444-111.616z" fill="#FFFFFF" p-id="43681"></path><path d="M770.844444 781.880889l-38.001777-20.366222-38.343111 19.569777 7.395555-42.780444-30.264889-30.833778 42.552889-6.144 19.683556-38.684444 18.887111 39.139555 42.439111 6.940445-30.947556 30.151111 6.599111 43.008z" fill="#E9DF00" p-id="43682"></path></svg>