<?xml version="1.0" standalone="no"?><!DOCTYPE svg PUBLIC "-//W3C//DTD SVG 1.1//EN" "http://www.w3.org/Graphics/SVG/1.1/DTD/svg11.dtd"><svg t="1574151508782" class="icon" viewBox="0 0 1024 1024" version="1.1" xmlns="http://www.w3.org/2000/svg" p-id="48984" xmlns:xlink="http://www.w3.org/1999/xlink" width="200" height="200"><defs><style type="text/css"></style></defs><path d="M1013.12 191.296V21.312h-169.984l59.904 59.968-341.76 264-47.808-59.456h0.064l-41.664-51.904L10.944 531.904l34.56 53.888 412.288-264.256 87.552 106.24 5.184 6.72 0.192-0.192 0.128 0.192 8.768-7.04 389.12-300.544zM56.64 678.208v293.184h128V596.096z" fill="#000000" p-id="48985"></path><path d="M260.608 547.456v423.936h128V465.408zM559.616 526.912l-8.768 7.104-0.128-0.192-0.192 0.192-5.184-6.784-78.08-94.72v538.88h128V499.456zM676.608 436.544v534.848h128V337.728zM948.736 226.432l-68.096 52.608v692.352h128V286.336z" fill="#000000" p-id="48986"></path></svg>