<?xml version="1.0" standalone="no"?><!DOCTYPE svg PUBLIC "-//W3C//DTD SVG 1.1//EN" "http://www.w3.org/Graphics/SVG/1.1/DTD/svg11.dtd"><svg t="1574151379556" class="icon" viewBox="0 0 1024 1024" version="1.1" xmlns="http://www.w3.org/2000/svg" p-id="48089" xmlns:xlink="http://www.w3.org/1999/xlink" width="200" height="200"><defs><style type="text/css"></style></defs><path d="M384.408555 813.577546c29.27065 0 58.556651 0 87.828324 0 11.692297 0 21.24486-9.538237 21.24486-21.193695l0-189.516308-59.309804-32.549324-71.015404 41.967834 0 180.097798C363.155509 804.039309 372.738771 813.577546 384.408555 813.577546L384.408555 813.577546zM128.54005 605.802386l287.114137-169.798221 16.686031-9.940396 17.004279 9.359158 86.122473 47.319725 230.338039-197.028399-32.69975-37.498032 80.495312-15.783475 80.495312-15.842827-26.573215 77.634148-26.543539 77.589123-30.462802-34.919301-248.745271 212.839503-17.869996 15.261589-20.581758-11.266601-89.750093-49.331545L163.168732 664.390759 128.54005 605.802386 128.54005 605.802386zM201.218326 813.577546l87.842651 0c11.676947 0 21.237697-9.538237 21.237697-21.193695L310.298673 643.600247l-130.303718 77.096912 0 71.687716C179.994955 804.039309 189.555705 813.577546 201.218326 813.577546L201.218326 813.577546zM567.583434 813.577546c29.286 0 58.556651 0 87.812975 0 11.685133 0 21.253046-9.538237 21.253046-21.193695 0-88.811722 0-177.533392 0-266.300089 0-1.103124-0.089028-2.176572-0.252757-3.219321L547.88786 632.764458l-1.551332-0.864694 0 160.484088C546.337551 804.039309 555.891138 813.577546 567.583434 813.577546L567.583434 813.577546zM750.780827 813.577546l87.783299 0c11.700483 0 21.25407-9.538237 21.25407-21.193695L859.818195 471.043193 807.23663 410.891208l-77.707826 66.485227 0 315.007417C729.52778 804.039309 739.081367 813.577546 750.780827 813.577546z" p-id="48090"></path></svg>