<?xml version="1.0" standalone="no"?><!DOCTYPE svg PUBLIC "-//W3C//DTD SVG 1.1//EN" "http://www.w3.org/Graphics/SVG/1.1/DTD/svg11.dtd"><svg t="1574151308345" class="icon" viewBox="0 0 1024 1024" version="1.1" xmlns="http://www.w3.org/2000/svg" p-id="47832" xmlns:xlink="http://www.w3.org/1999/xlink" width="200" height="200"><defs><style type="text/css"></style></defs><path d="M981.632 1022.72H41.344a40.96 40.96 0 0 1-40.96-40.96v-16.576a40.96 40.96 0 0 1 40.96-40.896h940.288c22.656 0 40.896 18.24 40.896 40.896v16.64a40.896 40.896 0 0 1-40.896 40.896z m-19.776-176.896h-193.6a40.768 40.768 0 0 1-40.768-40.96V238.336c0-22.656 18.112-40.96 40.768-40.96h193.6c22.656 0 40.896 18.304 40.896 40.96v566.656a41.024 41.024 0 0 1-40.896 40.832z m-353.856 0H415.04a40.96 40.96 0 0 1-40.96-40.96V41.536a41.024 41.024 0 0 1 40.96-40.896H608a40.96 40.96 0 0 1 40.896 40.896v763.392a40.96 40.96 0 0 1-40.896 40.896z m-353.344 0H61.12a40.96 40.96 0 0 1-40.896-40.96v-370.56a40.96 40.96 0 0 1 40.896-40.896h193.536c22.656 0 40.896 18.368 40.896 40.896v370.56a40.96 40.96 0 0 1-40.896 40.96z m0 0" fill="" p-id="47833"></path></svg>