<?xml version="1.0" standalone="no"?><!DOCTYPE svg PUBLIC "-//W3C//DTD SVG 1.1//EN" "http://www.w3.org/Graphics/SVG/1.1/DTD/svg11.dtd"><svg t="1574151651056" class="icon" viewBox="0 0 1024 1024" version="1.1" xmlns="http://www.w3.org/2000/svg" p-id="53464" xmlns:xlink="http://www.w3.org/1999/xlink" width="200" height="200"><defs><style type="text/css"></style></defs><path d="M134.736842 1024c3.557053-3.233684 7.006316-6.629053 10.778947-9.701053a585.189053 585.189053 0 0 0 145.084632-179.577263 741.914947 741.914947 0 0 0 74.266947-222.046316c9.431579-54.056421 13.743158-108.382316 12.826948-163.193263-0.215579-8.138105-0.808421-16.276211-1.293474-24.791579H211.698526L550.642526 0 889.263158 424.582737h-7.006316l-148.426105-0.10779c-3.988211 0-5.820632 0.538947-6.25179 5.22779a851.213474 851.213474 0 0 1-36.325052 171.708631 634.071579 634.071579 0 0 1-91.890527 180.601264 564.816842 564.816842 0 0 1-146.809263 138.24 647.545263 647.545263 0 0 1-238.753684 94.208c-21.935158 4.042105-44.301474 5.766737-66.45221 8.623157-1.509053 0.215579-2.964211 0.592842-4.365474 0.916211H134.736842z" p-id="53465"></path></svg>