<?xml version="1.0" standalone="no"?><!DOCTYPE svg PUBLIC "-//W3C//DTD SVG 1.1//EN" "http://www.w3.org/Graphics/SVG/1.1/DTD/svg11.dtd"><svg t="1574067309151" class="icon" viewBox="0 0 1024 1024" version="1.1" xmlns="http://www.w3.org/2000/svg" p-id="37615" xmlns:xlink="http://www.w3.org/1999/xlink" width="200" height="200"><defs><style type="text/css"></style></defs><path d="M806.60057 834.56h-54.717217l103.334957 142.469565a24.041739 24.041739 0 0 1-38.867479 28.315826l-30.72-42.384695H218.646483l-30.72 42.384695a23.997217 23.997217 0 1 1-38.912-28.315826l103.290435-142.469565H197.676744A64.111304 64.111304 0 0 1 133.56544 770.359652V160.50087A160.367304 160.367304 0 0 1 293.843701 0h416.634435c88.509217 0 160.233739 71.858087 160.233739 160.50087v609.858782a64.111304 64.111304 0 0 1-64.111305 64.200348z m-32.634434 112.328348l-34.949566-48.128H265.260744l-34.949565 48.128h543.610435zM310.405788 836.563478l-33.52487 46.213565h450.515479l-33.52487-46.213565c-0.445217-0.578783-0.489739-1.335652-0.890435-1.958956H311.296223c-0.400696 0.623304-0.445217 1.335652-0.890435 1.958956zM822.628397 160.50087a112.239304 112.239304 0 0 0-112.194783-112.37287H293.843701a112.239304 112.239304 0 0 0-112.194783 112.37287v593.830956a32.055652 32.055652 0 0 0 32.055652 32.055652h576.912696a32.055652 32.055652 0 0 0 32.055652-32.055652V160.50087zM694.405788 690.086957a64.111304 64.111304 0 1 1 0.133565-128.311653 64.111304 64.111304 0 0 1-0.089043 128.311653z m48.083478-272.829218H261.788049a16.027826 16.027826 0 0 1-16.027826-16.072348V224.701217c0-53.203478 43.052522-96.300522 96.166956-96.300521h320.512c53.114435 0 96.166957 43.097043 96.166957 96.300521v176.528696a16.027826 16.027826 0 0 1-16.027826 16.027826zM486.177614 176.528696h-144.250435A48.083478 48.083478 0 0 0 293.843701 224.701217V369.085217h192.333913V176.528696z m224.345043 48.172521a48.083478 48.083478 0 0 0-48.083478-48.172521h-128.222609v192.601043h176.306087V224.701217z m-400.65113 337.029566a64.111304 64.111304 0 1 1-0.089044 128.311652 64.111304 64.111304 0 0 1 0.089044-128.311652z" fill="#105596" p-id="37616"></path></svg>